<?xml version="1.0" encoding="utf-8"?>
<!-- Generator: Adobe Illustrator 25.2.0, SVG Export Plug-In . SVG Version: 6.00 Build 0)  -->
<svg version="1.1" id="Слой_1" xmlns="http://www.w3.org/2000/svg" xmlns:xlink="http://www.w3.org/1999/xlink" x="0px" y="0px"
	 viewBox="0 0 990.9 727.9" style="enable-background:new 0 0 990.9 727.9;" xml:space="preserve">
<style type="text/css">
	.st0{fill:#FFFFFF;}
</style>
<path class="st0" d="M773.8,376.5L615,406.3L541.8,364l73.2-42.3l158.8,29.8c-0.7-16.4-2.9-32.5-6.3-48l-91.2-17.1l71.3-41.2
	c-6.6-14-14.3-27.3-23-39.9l-71.3,41.2l30.8-87.7c-11.9-11-24.7-20.9-38.4-29.7L592,281.8l-73.2,42.3v-84.5l105.4-123
	C610,109.2,595,102.9,579.5,98l-60.7,70.8V86c-7.8-0.7-15.7-1-23.7-1c-7.5,0-15,0.3-22.4,0.9v82.9l-61-71.2
	c-15.6,4.9-30.6,11.1-44.8,18.5l105.8,123.4v84.5l-73.2-42.3l-54-153.4c-13.7,8.7-26.5,18.6-38.5,29.4l31.2,88.6L266,204.8
	c-8.8,12.6-16.5,25.9-23.1,39.8l72.3,41.8l-92.6,17.3c-3.4,15.6-5.6,31.6-6.3,48l160.1-30l73.2,42.3l-73.2,42.3l-160.1-30
	c0.7,16.4,2.8,32.5,6.3,48l92.6,17.3l-72.3,41.8c6.6,14,14.4,27.3,23.1,39.8l72.3-41.7l-31.2,88.6c11.9,10.9,24.8,20.7,38.5,29.4
	l54-153.4l73.2-42.3v84.5L366.8,611.8c14.3,7.4,29.3,13.6,44.8,18.5l61-71.2v82.9c7.4,0.6,14.8,0.9,22.4,0.9c8,0,15.9-0.4,23.7-1
	v-82.8l60.7,70.8c15.5-4.9,30.5-11.2,44.7-18.6l-105.4-123v-84.5l73.2,42.3l53.7,152.7c13.7-8.8,26.5-18.7,38.4-29.7l-30.8-87.7
	l71.3,41.2c8.7-12.6,16.4-25.9,23-39.9l-71.3-41.2l91.2-17.1C770.9,409,773.1,392.9,773.8,376.5z"/>
<path class="st0" d="M250,598.5l-65.6,12.3l-30.3-17.5l30.3-17.5l65.6,12.3c-0.3-6.8-1.2-13.4-2.6-19.9l-37.7-7.1l29.5-17
	c-2.7-5.8-5.9-11.3-9.5-16.5l-29.5,17l12.7-36.2c-4.9-4.5-10.2-8.6-15.9-12.3l-22.2,63.1l-30.3,17.5v-34.9l43.6-50.8
	c-5.9-3.1-12.1-5.7-18.5-7.7l-25.1,29.3v-34.2c-3.2-0.3-6.5-0.4-9.8-0.4c-3.1,0-6.2,0.1-9.2,0.4v34.3l-25.2-29.4
	c-6.4,2-12.6,4.6-18.5,7.6l43.7,51v34.9l-30.3-17.5L73,495.9c-5.7,3.6-11,7.7-15.9,12.2L70,544.7l-29.9-17.2
	c-3.6,5.2-6.8,10.7-9.6,16.5l29.9,17.3l-38.3,7.2c-1.4,6.4-2.3,13.1-2.6,19.9l66.2-12.4l30.3,17.5l-30.3,17.5l-66.2-12.4
	c0.3,6.8,1.2,13.4,2.6,19.9l38.3,7.2l-29.9,17.3c2.7,5.8,5.9,11.3,9.6,16.5L70,641.9l-12.9,36.6c4.9,4.5,10.2,8.6,15.9,12.2
	l22.3-63.4l30.3-17.5v34.9l-43.7,51c5.9,3.1,12.1,5.6,18.5,7.6l25.2-29.4v34.3c3.1,0.2,6.1,0.4,9.2,0.4c3.3,0,6.6-0.1,9.8-0.4V674
	l25.1,29.3c6.4-2,12.6-4.6,18.5-7.7l-43.6-50.8v-34.9l30.3,17.5l22.2,63.1c5.6-3.6,11-7.7,15.9-12.3l-12.7-36.2l29.5,17
	c3.6-5.2,6.8-10.7,9.5-16.5l-29.5-17l37.7-7.1C248.8,611.9,249.7,605.2,250,598.5z"/>
<path class="st0" d="M866,106.1l-47.4,8.9l-21.8-12.6l21.8-12.6l47.4,8.9c-0.2-4.9-0.9-9.7-1.9-14.3l-27.2-5.1l21.3-12.3
	c-2-4.2-4.3-8.2-6.9-11.9L830,67.2l9.2-26.2c-3.5-3.3-7.4-6.2-11.5-8.9l-16,45.6l-21.8,12.6V65.2l31.5-36.7
	c-4.2-2.2-8.7-4.1-13.3-5.6l-18.1,21.1V19.4c-2.3-0.2-4.7-0.3-7.1-0.3c-2.2,0-4.5,0.1-6.7,0.3v24.8l-18.2-21.2
	c-4.6,1.5-9.1,3.3-13.4,5.5l31.6,36.8v25.2l-21.8-12.6L738.2,32c-4.1,2.6-7.9,5.5-11.5,8.8l9.3,26.4l-21.6-12.5
	c-2.6,3.8-4.9,7.7-6.9,11.9l21.6,12.5l-27.6,5.2c-1,4.6-1.7,9.4-1.9,14.3l47.8-9l21.8,12.6l-21.8,12.6l-47.8-9
	c0.2,4.9,0.8,9.7,1.9,14.3l27.6,5.2L707.5,138c2,4.2,4.3,8.1,6.9,11.9l21.6-12.5l-9.3,26.4c3.6,3.2,7.4,6.2,11.5,8.8l16.1-45.8
	l21.8-12.6v25.2l-31.6,36.8c4.3,2.2,8.7,4.1,13.4,5.5l18.2-21.2v24.8c2.2,0.2,4.4,0.3,6.7,0.3c2.4,0,4.7-0.1,7.1-0.3v-24.7
	l18.1,21.1c4.6-1.5,9.1-3.3,13.3-5.6l-31.5-36.7v-25.2l21.8,12.6l16,45.6c4.1-2.6,7.9-5.6,11.5-8.9l-9.2-26.2l21.3,12.3
	c2.6-3.8,4.9-7.7,6.9-11.9l-21.3-12.3l27.2-5.1C865.1,115.8,865.8,111,866,106.1z"/>
<path class="st0" d="M831.4,562.7l-21.5,4L800,561l9.9-5.7l21.5,4c-0.1-2.2-0.4-4.4-0.9-6.5l-12.3-2.3l9.6-5.6
	c-0.9-1.9-1.9-3.7-3.1-5.4l-9.6,5.6l4.2-11.9c-1.6-1.5-3.3-2.8-5.2-4l-7.3,20.7l-9.9,5.7v-11.4l14.3-16.6c-1.9-1-3.9-1.9-6-2.5
	l-8.2,9.6v-11.2c-1.1-0.1-2.1-0.1-3.2-0.1c-1,0-2,0-3,0.1v11.2l-8.3-9.6c-2.1,0.7-4.1,1.5-6.1,2.5l14.3,16.7v11.4l-9.9-5.7
	l-7.3-20.8c-1.9,1.2-3.6,2.5-5.2,4l4.2,12l-9.8-5.6c-1.2,1.7-2.2,3.5-3.1,5.4l9.8,5.7l-12.5,2.3c-0.5,2.1-0.8,4.3-0.8,6.5l21.7-4.1
	l9.9,5.7l-9.9,5.7l-21.7-4.1c0.1,2.2,0.4,4.4,0.8,6.5l12.5,2.3l-9.8,5.7c0.9,1.9,1.9,3.7,3.1,5.4l9.8-5.6l-4.2,12
	c1.6,1.5,3.4,2.8,5.2,4l7.3-20.8l9.9-5.7v11.4l-14.3,16.7c1.9,1,4,1.8,6.1,2.5l8.3-9.6v11.2c1,0.1,2,0.1,3,0.1c1.1,0,2.1,0,3.2-0.1
	v-11.2l8.2,9.6c2.1-0.7,4.1-1.5,6-2.5l-14.3-16.6v-11.4l9.9,5.7l7.3,20.7c1.8-1.2,3.6-2.5,5.2-4l-4.2-11.9l9.6,5.6
	c1.2-1.7,2.2-3.5,3.1-5.4l-9.6-5.6l12.3-2.3C831,567.1,831.3,564.9,831.4,562.7z"/>
<path class="st0" d="M266.4,101.7l-21.5,4L235,100l9.9-5.7l21.5,4c-0.1-2.2-0.4-4.4-0.9-6.5l-12.3-2.3l9.6-5.6
	c-0.9-1.9-1.9-3.7-3.1-5.4l-9.6,5.6l4.2-11.9c-1.6-1.5-3.3-2.8-5.2-4l-7.3,20.7l-9.9,5.7V83.2l14.3-16.6c-1.9-1-3.9-1.9-6-2.5
	l-8.2,9.6V62.4c-1.1-0.1-2.1-0.1-3.2-0.1c-1,0-2,0-3,0.1v11.2l-8.3-9.6c-2.1,0.7-4.1,1.5-6.1,2.5l14.3,16.7v11.4l-9.9-5.7l-7.3-20.8
	c-1.9,1.2-3.6,2.5-5.2,4l4.2,12l-9.8-5.6c-1.2,1.7-2.2,3.5-3.1,5.4l9.8,5.7l-12.5,2.3c-0.5,2.1-0.8,4.3-0.8,6.5l21.7-4.1l9.9,5.7
	l-9.9,5.7l-21.7-4.1c0.1,2.2,0.4,4.4,0.8,6.5l12.5,2.3l-9.8,5.7c0.9,1.9,1.9,3.7,3.1,5.4l9.8-5.6l-4.2,12c1.6,1.5,3.4,2.8,5.2,4
	l7.3-20.8l9.9-5.7v11.4l-14.3,16.7c1.9,1,4,1.8,6.1,2.5l8.3-9.6v11.2c1,0.1,2,0.1,3,0.1c1.1,0,2.1,0,3.2-0.1v-11.2l8.2,9.6
	c2.1-0.7,4.1-1.5,6-2.5l-14.3-16.6v-11.4l9.9,5.7l7.3,20.7c1.8-1.2,3.6-2.5,5.2-4l-4.2-11.9l9.6,5.6c1.2-1.7,2.2-3.5,3.1-5.4
	l-9.6-5.6l12.3-2.3C266,106.1,266.3,103.9,266.4,101.7z"/>
<path class="st0" d="M204.4,257.7l-21.5,4L173,256l9.9-5.7l21.5,4c-0.1-2.2-0.4-4.4-0.9-6.5l-12.3-2.3l9.6-5.6
	c-0.9-1.9-1.9-3.7-3.1-5.4l-9.6,5.6l4.2-11.9c-1.6-1.5-3.3-2.8-5.2-4l-7.3,20.7l-9.9,5.7v-11.4l14.3-16.6c-1.9-1-3.9-1.9-6-2.5
	l-8.2,9.6v-11.2c-1.1-0.1-2.1-0.1-3.2-0.1c-1,0-2,0-3,0.1v11.2l-8.3-9.6c-2.1,0.7-4.1,1.5-6.1,2.5l14.3,16.7v11.4l-9.9-5.7
	l-7.3-20.8c-1.9,1.2-3.6,2.5-5.2,4l4.2,12l-9.8-5.6c-1.2,1.7-2.2,3.5-3.1,5.4l9.8,5.7l-12.5,2.3c-0.5,2.1-0.8,4.3-0.8,6.5l21.7-4.1
	l9.9,5.7l-9.9,5.7l-21.7-4.1c0.1,2.2,0.4,4.4,0.8,6.5l12.5,2.3l-9.8,5.7c0.9,1.9,1.9,3.7,3.1,5.4l9.8-5.6l-4.2,12
	c1.6,1.5,3.4,2.8,5.2,4l7.3-20.8l9.9-5.7v11.4l-14.3,16.7c1.9,1,4,1.8,6.1,2.5l8.3-9.6v11.2c1,0.1,2,0.1,3,0.1c1.1,0,2.1,0,3.2-0.1
	v-11.2l8.2,9.6c2.1-0.7,4.1-1.5,6-2.5l-14.3-16.6v-11.4l9.9,5.7l7.3,20.7c1.8-1.2,3.6-2.5,5.2-4l-4.2-11.9l9.6,5.6
	c1.2-1.7,2.2-3.5,3.1-5.4l-9.6-5.6l12.3-2.3C204,262.1,204.3,259.9,204.4,257.7z"/>
<path class="st0" d="M901.4,637.7l-21.5,4L870,636l9.9-5.7l21.5,4c-0.1-2.2-0.4-4.4-0.9-6.5l-12.3-2.3l9.6-5.6
	c-0.9-1.9-1.9-3.7-3.1-5.4l-9.6,5.6l4.2-11.9c-1.6-1.5-3.3-2.8-5.2-4l-7.3,20.7l-9.9,5.7v-11.4l14.3-16.6c-1.9-1-3.9-1.9-6-2.5
	l-8.2,9.6v-11.2c-1.1-0.1-2.1-0.1-3.2-0.1c-1,0-2,0-3,0.1v11.2l-8.3-9.6c-2.1,0.7-4.1,1.5-6.1,2.5l14.3,16.7v11.4l-9.9-5.7
	l-7.3-20.8c-1.9,1.2-3.6,2.5-5.2,4l4.2,12l-9.8-5.6c-1.2,1.7-2.2,3.5-3.1,5.4l9.8,5.7l-12.5,2.3c-0.5,2.1-0.8,4.3-0.8,6.5l21.7-4.1
	l9.9,5.7l-9.9,5.7l-21.7-4.1c0.1,2.2,0.4,4.4,0.8,6.5l12.5,2.3l-9.8,5.7c0.9,1.9,1.9,3.7,3.1,5.4l9.8-5.6l-4.2,12
	c1.6,1.5,3.4,2.8,5.2,4l7.3-20.8l9.9-5.7v11.4l-14.3,16.7c1.9,1,4,1.8,6.1,2.5l8.3-9.6v11.2c1,0.1,2,0.1,3,0.1c1.1,0,2.1,0,3.2-0.1
	v-11.2l8.2,9.6c2.1-0.7,4.1-1.5,6-2.5l-14.3-16.6v-11.4l9.9,5.7l7.3,20.7c1.8-1.2,3.6-2.5,5.2-4l-4.2-11.9l9.6,5.6
	c1.2-1.7,2.2-3.5,3.1-5.4l-9.6-5.6l12.3-2.3C901,642.1,901.3,639.9,901.4,637.7z"/>
<path class="st0" d="M148.4,139.7l-21.5,4L117,138l9.9-5.7l21.5,4c-0.1-2.2-0.4-4.4-0.9-6.5l-12.3-2.3l9.6-5.6
	c-0.9-1.9-1.9-3.7-3.1-5.4l-9.6,5.6l4.2-11.9c-1.6-1.5-3.3-2.8-5.2-4l-7.3,20.7l-9.9,5.7v-11.4l14.3-16.6c-1.9-1-3.9-1.9-6-2.5
	l-8.2,9.6v-11.2c-1.1-0.1-2.1-0.1-3.2-0.1c-1,0-2,0-3,0.1v11.2l-8.3-9.6c-2.1,0.7-4.1,1.5-6.1,2.5l14.3,16.7v11.4l-9.9-5.7
	l-7.3-20.8c-1.9,1.2-3.6,2.5-5.2,4l4.2,12l-9.8-5.6c-1.2,1.7-2.2,3.5-3.1,5.4l9.8,5.7l-12.5,2.3c-0.5,2.1-0.8,4.3-0.8,6.5l21.7-4.1
	l9.9,5.7l-9.9,5.7L73,139.7c0.1,2.2,0.4,4.4,0.8,6.5l12.5,2.3l-9.8,5.7c0.9,1.9,1.9,3.7,3.1,5.4l9.8-5.6l-4.2,12
	c1.6,1.5,3.4,2.8,5.2,4l7.3-20.8l9.9-5.7v11.4l-14.3,16.7c1.9,1,4,1.8,6.1,2.5l8.3-9.6v11.2c1,0.1,2,0.1,3,0.1c1.1,0,2.1,0,3.2-0.1
	v-11.2l8.2,9.6c2.1-0.7,4.1-1.5,6-2.5l-14.3-16.6v-11.4l9.9,5.7l7.3,20.7c1.8-1.2,3.6-2.5,5.2-4l-4.2-11.9l9.6,5.6
	c1.2-1.7,2.2-3.5,3.1-5.4l-9.6-5.6l12.3-2.3C148,144.1,148.3,141.9,148.4,139.7z"/>
</svg>
