<?xml version="1.0" encoding="utf-8"?>
<!-- Generator: Adobe Illustrator 25.2.0, SVG Export Plug-In . SVG Version: 6.00 Build 0)  -->
<svg version="1.1" id="Слой_1" xmlns="http://www.w3.org/2000/svg" xmlns:xlink="http://www.w3.org/1999/xlink" x="0px" y="0px"
	 viewBox="0 0 990.9 727.9" style="enable-background:new 0 0 990.9 727.9;" xml:space="preserve">
<style type="text/css">
	.st0{fill:#FFFFFF;}
</style>
<path class="st0" d="M823.2,85.7H333.9c-18.6,0-33.9-15.2-33.9-33.9v0c0-18.6,15.2-33.9,33.9-33.9h489.3c18.6,0,33.9,15.2,33.9,33.9
	v0C857,70.5,841.8,85.7,823.2,85.7z"/>
<path class="st0" d="M777.1,209.2H51.9C33.2,209.2,18,194,18,175.3v0c0-18.6,15.2-33.9,33.9-33.9h725.3c18.6,0,33.9,15.2,33.9,33.9
	v0C811,194,795.8,209.2,777.1,209.2z"/>
<path class="st0" d="M941.1,332.6H219.9c-18.6,0-33.9-15.2-33.9-33.9v0c0-18.6,15.2-33.9,33.9-33.9h721.3
	c18.6,0,33.9,15.2,33.9,33.9v0C975,317.4,959.8,332.6,941.1,332.6z"/>
<path class="st0" d="M777.1,456.1H51.9c-18.6,0-33.9-15.2-33.9-33.9v0c0-18.6,15.2-33.9,33.9-33.9h725.3c18.6,0,33.9,15.2,33.9,33.9
	v0C811,440.9,795.8,456.1,777.1,456.1z"/>
<path class="st0" d="M823.1,579.5H219.9c-18.6,0-33.9-15.2-33.9-33.9v0c0-18.6,15.2-33.9,33.9-33.9h603.3
	c18.6,0,33.9,15.2,33.9,33.9v0C857,564.3,841.8,579.5,823.1,579.5z"/>
<path class="st0" d="M657.1,703H244.9c-18.6,0-33.9-15.2-33.9-33.9v0c0-18.6,15.2-33.9,33.9-33.9h412.3c18.6,0,33.9,15.2,33.9,33.9
	v0C691,687.8,675.8,703,657.1,703z"/>
</svg>
