<?xml version="1.0" encoding="utf-8"?>
<!-- Generator: Adobe Illustrator 26.0.1, SVG Export Plug-In . SVG Version: 6.00 Build 0)  -->
<svg version="1.1" id="Слой_1" xmlns="http://www.w3.org/2000/svg" xmlns:xlink="http://www.w3.org/1999/xlink" x="0px" y="0px"
	 viewBox="0 0 990.9 727.9" style="enable-background:new 0 0 990.9 727.9;" xml:space="preserve">
<style type="text/css">
	.st0{fill:#FCFCFC;}
</style>
<path class="st0" d="M941.4,408H49.6C36,408,25,397,25,383.4v-38.8C25,331,36,320,49.6,320h891.8c13.6,0,24.6,11,24.6,24.6v38.8
	C966,397,955,408,941.4,408z"/>
<path class="st0" d="M794.4,701H49.6C36,701,25,690,25,676.4v-38.8C25,624,36,613,49.6,613h744.8c13.6,0,24.6,11,24.6,24.6v38.8
	C819,690,808,701,794.4,701z"/>
<path class="st0" d="M664.4,115H49.6C36,115,25,104,25,90.4V51.6C25,38,36,27,49.6,27h614.8C678,27,689,38,689,51.6v38.8
	C689,104,678,115,664.4,115z"/>
</svg>
