<?xml version="1.0" encoding="utf-8"?>
<!-- Generator: Adobe Illustrator 25.2.0, SVG Export Plug-In . SVG Version: 6.00 Build 0)  -->
<svg version="1.1" id="Capa_1" xmlns="http://www.w3.org/2000/svg" xmlns:xlink="http://www.w3.org/1999/xlink" x="0px" y="0px"
	 viewBox="0 0 512 512" style="enable-background:new 0 0 512 512;" xml:space="preserve">
<style type="text/css">
	.st0{fill:#FFFFFF;}
</style>
<g>
	<g>
		<path class="st0" d="M509.2,193.8c-7.6-23.2-28.1-38.3-52.4-38.3H354.4c-6.8,0-12.4-3.9-14.4-9.9l-31.6-98
			C300.9,24.5,280.3,9.5,256,9.5s-44.9,15-52.4,38.1L172,145.5c-2,6-7.6,9.9-14.4,9.9H55.2c-24.3,0-44.9,15-52.4,38.3
			c-7.6,23.3,0.3,47.7,20,62l82.8,60.1c5.3,3.9,7.5,10.7,5.5,16.9l-31.6,97.3c-7.5,23.1,0.3,47.3,20,61.6
			c9.8,7.2,21.1,10.7,32.4,10.7c11.3,0,22.6-3.6,32.4-10.7l82.8-60.1c5.3-3.9,12.5-3.9,17.8,0l82.8,60.1c19.7,14.3,45.1,14.3,64.8,0
			c19.7-14.3,27.5-38.5,20-61.6l-21.6-66.6c-3.4-10.5-14.7-16.3-25.2-12.8c-10.5,3.4-16.3,14.7-12.8,25.2l21.6,66.6
			c3.2,9.7-3.4,15.4-5.5,16.9c-2.1,1.5-9.5,6-17.8,0l-82.8-60.1c-19.4-14.1-45.4-14.1-64.8,0l-82.8,60.1c-8.3,6-15.7,1.5-17.8,0
			c-2.1-1.5-8.7-7.2-5.5-16.9l31.6-97.3c7.4-22.8-0.6-47.6-20-61.6l-82.8-60.1c-8.3-6-6.3-14.8-5.5-17.3c0.8-2.5,4.2-10.6,14.4-10.6
			h102.3c24.1,0,45.1-15.1,52.4-37.6L241.6,60c3.2-9.7,11.8-10.5,14.4-10.5s11.2,0.8,14.4,10.4l31.6,98
			c7.3,22.5,28.4,37.6,52.4,37.6h102.3c10.1,0,13.6,8.1,14.4,10.6c0.8,2.5,2.9,11.2-5.5,17.3l-56.4,41c-8.9,6.5-10.9,19-4.4,27.9
			c6.5,8.9,19,10.9,27.9,4.4l56.4-41C508.9,241.4,516.7,217.1,509.2,193.8z"/>
	</g>
</g>
</svg>
