<?xml version="1.0" encoding="utf-8"?>
<!-- Generator: Adobe Illustrator 25.2.0, SVG Export Plug-In . SVG Version: 6.00 Build 0)  -->
<svg version="1.1" id="Слой_1" xmlns:xodm="http://www.corel.com/coreldraw/odm/2003"
	 xmlns="http://www.w3.org/2000/svg" xmlns:xlink="http://www.w3.org/1999/xlink" x="0px" y="0px" viewBox="0 0 168 168"
	 style="enable-background:new 0 0 168 168;" xml:space="preserve">
<style type="text/css">
	.st0{fill:#FFBC00;stroke:#FFFFFF;stroke-width:10;stroke-miterlimit:10;}
</style>
<path class="st0" d="M89.2,13.3l19.2,38.9c0.8,1.7,2.5,2.9,4.3,3.1l42.9,6.2c4.7,0.7,6.6,6.5,3.2,9.8l-31,30.3
	c-1.4,1.3-2,3.2-1.6,5.1l7.3,42.7c0.8,4.7-4.1,8.3-8.3,6l-38.4-20.2c-1.7-0.9-3.7-0.9-5.3,0L43,155.5c-4.2,2.2-9.1-1.4-8.3-6
	l7.3-42.7c0.3-1.9-0.3-3.8-1.6-5.1l-31-30.3c-3.4-3.3-1.5-9.1,3.2-9.8l42.9-6.2c1.9-0.3,3.5-1.4,4.3-3.1l19.2-38.9
	C81,9.1,87.1,9.1,89.2,13.3z"/>
</svg>
