<?xml version="1.0" encoding="utf-8"?>
<!-- Generator: Adobe Illustrator 25.2.0, SVG Export Plug-In . SVG Version: 6.00 Build 0)  -->
<svg version="1.1" id="Capa_1" xmlns="http://www.w3.org/2000/svg" xmlns:xlink="http://www.w3.org/1999/xlink" x="0px" y="0px"
	 viewBox="0 0 512 512" style="enable-background:new 0 0 512 512;" xml:space="preserve">
<style type="text/css">
	.st0{fill:#FFFFFF;}
</style>
<g>
	<g>
		<path class="st0" d="M80,476.9h127c44.1,0,80-35.9,80-80v-20c0-11-9-20-20-20s-20,9-20,20v20c0,22.1-17.9,40-40,40H80
			c-22.1,0-40-17.9-40-40v-283c0-22.1,17.9-40,40-40h127c22.1,0,40,17.9,40,40v20c0,11,9,20,20,20s20-9,20-20v-20
			c0-44.1-35.9-80-80-80H80c-44.1,0-80,35.9-80,80v283C0,441,35.9,476.9,80,476.9z"/>
	</g>
</g>
<g>
	<g>
		<path class="st0" d="M464.5,241.3l0.1,0.1c8,8,8,21.1,0,29.2L388,347.7c-8,8.1-8,21.1,0.1,29.2c8.1,8,21.1,8,29.2-0.1l76.6-77
			c24.1-24.1,24.1-63.3,0.1-87.5l-76.6-78.1c-4-4.1-9.4-6.2-14.7-6.2c-5.2,0-10.4,2-14.4,5.9c-8.1,8-8.3,21-0.3,29.2L464.5,241.3z"
			/>
	</g>
</g>
<g>
	<g>
		<path class="st0" d="M155.1,278.1H390c12.2,0,22.1-9.9,22.1-22.1c0-12.2-9.9-22.1-22.1-22.1H155.1c-12.2,0-22.1,9.9-22.1,22.1
			C133,268.2,142.9,278.1,155.1,278.1z"/>
	</g>
</g>
</svg>
