<?xml version="1.0" encoding="utf-8"?>
<!-- Generator: Adobe Illustrator 25.2.0, SVG Export Plug-In . SVG Version: 6.00 Build 0)  -->
<svg version="1.1" id="Слой_1" xmlns="http://www.w3.org/2000/svg" xmlns:xlink="http://www.w3.org/1999/xlink" x="0px" y="0px"
	 viewBox="0 0 990.9 727.9" style="enable-background:new 0 0 990.9 727.9;" xml:space="preserve">
<style type="text/css">
	.st0{fill:#FFCE00;}
	.st1{fill:#FCFCFC;}
</style>
<circle class="st0" cx="682.9" cy="306.7" r="290.6"/>
<path class="st1" d="M733.2,414.6c1.8-12.2,2.8-24.7,2.8-37.5c0-140-113.5-253.5-253.5-253.5c-122.6,0-224.9,87-248.4,202.7
	c-7.6-0.9-15.2-1.4-23-1.4c-107.7,0-195,87.3-195,195c0,107.5,87,194.7,194.4,195v0h510.2c1.3,0,2.7,0.1,4.1,0.1
	c83,0,150.3-67.3,150.3-150.3C875,484.6,812.2,419,733.2,414.6z"/>
</svg>
