<?xml version="1.0" encoding="utf-8"?>
<!-- Generator: Adobe Illustrator 25.2.0, SVG Export Plug-In . SVG Version: 6.00 Build 0)  -->
<svg version="1.1" id="Слой_1" xmlns="http://www.w3.org/2000/svg" xmlns:xlink="http://www.w3.org/1999/xlink" x="0px" y="0px"
	 viewBox="0 0 990.9 727.9" style="enable-background:new 0 0 990.9 727.9;" xml:space="preserve">
<style type="text/css">
	.st0{fill:#636363;}
	.st1{fill:#C6C6C6;}
	.st2{fill:#0061EF;}
</style>
<path class="st0" d="M833.7,307.6c1.8-12.2,2.8-24.7,2.8-37.5c0-140-113.5-253.5-253.5-253.5c-122.6,0-224.9,87-248.4,202.7
	c-7.6-0.9-15.2-1.4-23-1.4c-107.7,0-195,87.3-195,195c0,107.5,87,194.7,194.4,195v0h510.2c1.3,0,2.7,0.1,4.1,0.1
	c83,0,150.3-67.3,150.3-150.3C975.6,377.6,912.8,312.1,833.7,307.6z"/>
<path class="st1" d="M733.2,414.6c1.8-12.2,2.8-24.7,2.8-37.5c0-140-113.5-253.5-253.5-253.5c-122.6,0-224.9,87-248.4,202.7
	c-7.6-0.9-15.2-1.4-23-1.4c-107.7,0-195,87.3-195,195c0,107.5,87,194.7,194.4,195v0h510.2c1.3,0,2.7,0.1,4.1,0.1
	c83,0,150.3-67.3,150.3-150.3C875,484.6,812.2,419,733.2,414.6z"/>
<g>
	<path class="st2" d="M346.5,345.6c12.5,3.6,25.9-5.2,30-19.6c4.1-14.4,10-70.6-2.5-74.2s-38.6,46.9-42.7,61.3
		C327.2,327.6,334,342.1,346.5,345.6z"/>
	<path class="st2" d="M333.3,395.3c-12.5-3.6-38.6,46.9-42.7,61.3c-4.1,14.4,2.7,28.9,15.2,32.4c12.5,3.6,25.9-5.2,30-19.6
		S345.8,398.9,333.3,395.3z"/>
	<path class="st2" d="M292.3,538.6c-12.5-3.6-38.6,46.9-42.7,61.3s2.7,28.9,15.2,32.4c12.5,3.6,25.9-5.2,30-19.6
		S304.8,542.1,292.3,538.6z"/>
</g>
<g>
	<path class="st2" d="M487.3,296.8c12.5,3.6,25.9-5.2,30-19.6c4.1-14.4,10-70.6-2.5-74.2c-12.5-3.6-38.6,46.9-42.7,61.3
		C468,278.7,474.8,293.2,487.3,296.8z"/>
	<path class="st2" d="M446.3,440.1c12.5,3.6,25.9-5.2,30-19.6c4.1-14.4,10-70.6-2.5-74.2c-12.5-3.6-38.6,46.9-42.7,61.3
		C427,422,433.8,436.5,446.3,440.1z"/>
	<path class="st2" d="M433.1,489.7c-12.5-3.6-38.6,46.9-42.7,61.3c-4.1,14.4,2.7,28.9,15.2,32.4c12.5,3.6,25.9-5.2,30-19.6
		C439.7,549.5,445.6,493.3,433.1,489.7z"/>
	<path class="st2" d="M392.1,633c-12.5-3.6-38.6,46.9-42.7,61.3c-4.1,14.4,2.7,28.9,15.2,32.4s25.9-5.2,30-19.6
		C398.7,692.8,404.6,636.6,392.1,633z"/>
</g>
<g>
	<path class="st2" d="M593,366.7c12.5,3.6,25.9-5.2,30-19.6c4.1-14.4,10-70.6-2.5-74.2c-12.5-3.6-38.6,46.9-42.7,61.3
		C573.7,348.6,580.5,363.1,593,366.7z"/>
	<path class="st2" d="M579.8,416.4c-12.5-3.6-38.6,46.9-42.7,61.3c-4.1,14.4,2.7,28.9,15.2,32.4c12.5,3.6,25.9-5.2,30-19.6
		C586.4,476.2,592.3,419.9,579.8,416.4z"/>
	<path class="st2" d="M538.8,559.7c-12.5-3.6-38.6,46.9-42.7,61.3c-4.1,14.4,2.7,28.9,15.2,32.4c12.5,3.6,25.9-5.2,30-19.6
		S551.3,563.2,538.8,559.7z"/>
</g>
</svg>
