<?xml version="1.0" encoding="utf-8"?>
<!-- Generator: Adobe Illustrator 25.2.0, SVG Export Plug-In . SVG Version: 6.00 Build 0)  -->
<svg version="1.1" id="Слой_1" xmlns="http://www.w3.org/2000/svg" xmlns:xlink="http://www.w3.org/1999/xlink" x="0px" y="0px"
	 viewBox="0 0 990.9 727.9" style="enable-background:new 0 0 990.9 727.9;" xml:space="preserve">
<style type="text/css">
	.st0{fill:#FFCE00;}
	.st1{fill:#FCFCFC;}
	.st2{fill:#66ACFF;}
</style>
<path class="st0" d="M773.8,15.2c31.4,51,47,112.2,40.6,176.4c-15.4,155.8-154.2,269.5-310,254.1c-16.3-1.6-32.2-4.6-47.5-8.8
	c44.1,54.2,109,91.6,184.1,99c149.4,14.8,282.4-94.3,297.2-243.6C950.3,170.9,880.5,60.3,773.8,15.2z"/>
<path class="st1" d="M733.2,414.6c1.8-12.2,2.8-24.7,2.8-37.5c0-140-113.5-253.5-253.5-253.5c-122.6,0-224.9,87-248.4,202.7
	c-7.6-0.9-15.2-1.4-23-1.4c-107.7,0-195,87.3-195,195c0,107.5,87,194.7,194.4,195l0,0h510.2c1.3,0,2.7,0.1,4.1,0.1
	c83,0,150.3-67.3,150.3-150.3C875,484.6,812.2,419,733.2,414.6z"/>
<g>
	<path class="st2" d="M353.2,346c12.5,3.6,25.9-5.2,30-19.6c4.1-14.4,10-70.6-2.5-74.2c-12.5-3.6-38.6,46.9-42.7,61.3
		C333.9,327.9,340.7,342.4,353.2,346z"/>
	<path class="st2" d="M340,395.7c-12.5-3.6-38.6,46.9-42.7,61.3c-4.1,14.4,2.7,28.9,15.2,32.4c12.5,3.6,25.9-5.2,30-19.6
		C346.6,455.5,352.5,399.2,340,395.7z"/>
	<path class="st2" d="M299,539c-12.5-3.6-38.6,46.9-42.7,61.3c-4.1,14.4,2.7,28.9,15.2,32.4s25.9-5.2,30-19.6
		C305.6,598.8,311.5,542.5,299,539z"/>
</g>
<g>
	<path class="st2" d="M493.9,297.1c12.5,3.6,25.9-5.2,30-19.6c4.1-14.4,10-70.6-2.5-74.2c-12.5-3.6-38.6,46.9-42.7,61.3
		C474.6,279.1,481.4,293.6,493.9,297.1z"/>
	<path class="st2" d="M452.9,440.4c12.5,3.6,25.9-5.2,30-19.6c4.1-14.4,10-70.6-2.5-74.2c-12.5-3.6-38.6,46.9-42.7,61.3
		C433.6,422.4,440.5,436.9,452.9,440.4z"/>
	<path class="st2" d="M439.7,490.1c-12.5-3.6-38.6,46.9-42.7,61.3s2.7,28.9,15.2,32.4s25.9-5.2,30-19.6
		C446.4,549.9,452.2,493.7,439.7,490.1z"/>
	<path class="st2" d="M398.8,633.4c-12.5-3.6-38.6,46.9-42.7,61.3c-4.1,14.4,2.7,28.9,15.2,32.4c12.5,3.6,25.9-5.2,30-19.6
		C405.4,693.2,411.2,636.9,398.8,633.4z"/>
</g>
<g>
	<path class="st2" d="M599.7,367.1c12.5,3.6,25.9-5.2,30-19.6c4.1-14.4,10-70.6-2.5-74.2c-12.5-3.6-38.6,46.9-42.7,61.3
		C580.4,349,587.2,363.5,599.7,367.1z"/>
	<path class="st2" d="M586.5,416.7c-12.5-3.6-38.6,46.9-42.7,61.3c-4.1,14.4,2.7,28.9,15.2,32.4c12.5,3.6,25.9-5.2,30-19.6
		C593.1,476.5,599,420.3,586.5,416.7z"/>
	<path class="st2" d="M545.5,560c-12.5-3.6-38.6,46.9-42.7,61.3s2.7,28.9,15.2,32.4c12.5,3.6,25.9-5.2,30-19.6
		C552.1,619.8,558,563.6,545.5,560z"/>
</g>
</svg>
