<?xml version="1.0" encoding="utf-8"?>
<!-- Generator: Adobe Illustrator 25.2.0, SVG Export Plug-In . SVG Version: 6.00 Build 0)  -->
<svg version="1.1" id="Capa_1" xmlns="http://www.w3.org/2000/svg" xmlns:xlink="http://www.w3.org/1999/xlink" x="0px" y="0px"
	 viewBox="0 0 512 512" style="enable-background:new 0 0 512 512;" xml:space="preserve">
<style type="text/css">
	.st0{fill:#007AFF;}
</style>
<g>
	<g>
		<g>
			<path class="st0" d="M437,75C388.7,26.6,324.4,0,256,0S123.3,26.6,75,75C26.6,123.3,0,187.6,0,256s26.6,132.7,75,181
				c48.4,48.4,112.6,75,181,75c46.8,0,92.6-12.8,132.5-36.9c9.4-5.7,12.5-18,6.7-27.5c-5.7-9.4-18-12.5-27.5-6.7
				C334.1,461.2,295.5,472,256,472c-119.1,0-216-96.9-216-216S136.9,40,256,40s216,96.9,216,216c0,42.6-12.7,84-36.6,119.9
				c-6.1,9.2-3.7,21.6,5.5,27.7c9.2,6.1,21.6,3.7,27.7-5.5C497,355.7,512,306.5,512,256C512,187.6,485.4,123.3,437,75z"/>
			<path class="st0" d="M218,201c0-19.1-3.9-37.3-10.9-51.4C198,131.4,183.8,121,168,121s-30,10.4-39.1,28.6
				c-7,14.1-10.9,32.3-10.9,51.4c0,11,9,20,20,20s20-9,20-20c0-20.7,6.1-34.3,10-38.8c3.9,4.6,10,18.1,10,38.8c0,11,9,20,20,20
				S218,212,218,201z"/>
			<path class="st0" d="M335,201c0-20.7,6.1-34.3,10-38.8c3.9,4.6,10,18.1,10,38.8c0,11,9,20,20,20s20-9,20-20
				c0-19.1-3.9-37.3-10.9-51.4C375,131.4,360.8,121,345,121s-30,10.4-39.1,28.6c-7,14.1-10.9,32.3-10.9,51.4c0,11,9,20,20,20
				S335,212,335,201z"/>
			<path class="st0" d="M208.1,376.9c13,10.4,30,16.1,47.9,16.1s34.9-5.7,47.9-16.1c14.1-11.3,22.1-27.3,22.1-43.9
				s-8.1-32.6-22.1-43.9c-13-10.4-30-16.1-47.9-16.1s-34.9,5.7-47.9,16.1C194.1,300.4,186,316.4,186,333S194.1,365.6,208.1,376.9z
				 M256,313c16,0,30,9.3,30,20s-14,20-30,20s-30-9.3-30-20S240,313,256,313z"/>
		</g>
	</g>
</g>
</svg>
